<mxfile host="app.diagrams.net" modified="2024-02-19T15:51:57.462Z" agent="Mozilla/5.0 (Windows NT 10.0; Win64; x64) AppleWebKit/537.36 (KHTML, like Gecko) Chrome/121.0.0.0 Safari/537.36" etag="AWPM06z8USKBk3_7X9lo" version="23.1.5" type="github" pages="7">
  <diagram id="18t2caXNX2-pDg0ipx5h" name="Login">
    <mxGraphModel dx="1050" dy="557" grid="1" gridSize="10" guides="1" tooltips="1" connect="1" arrows="1" fold="1" page="1" pageScale="1" pageWidth="850" pageHeight="1100" background="none" math="0" shadow="0">
      <root>
        <mxCell id="0" />
        <mxCell id="1" parent="0" />
        <mxCell id="MFz6BAkq9LY2ZdtFGx5P-12" value="if success, show home page" style="edgeStyle=orthogonalEdgeStyle;rounded=0;orthogonalLoop=1;jettySize=auto;html=1;exitX=0;exitY=1;exitDx=0;exitDy=0;entryX=1;entryY=0;entryDx=0;entryDy=0;" parent="1" source="MFz6BAkq9LY2ZdtFGx5P-1" target="MFz6BAkq9LY2ZdtFGx5P-3" edge="1">
          <mxGeometry x="-0.0987" relative="1" as="geometry">
            <Array as="points">
              <mxPoint x="417" y="200" />
              <mxPoint x="260" y="200" />
            </Array>
            <mxPoint as="offset" />
          </mxGeometry>
        </mxCell>
        <mxCell id="MFz6BAkq9LY2ZdtFGx5P-1" value="1.0&lt;br&gt;Login" style="ellipse;whiteSpace=wrap;html=1;aspect=fixed;" parent="1" vertex="1">
          <mxGeometry x="405" y="110" width="80" height="80" as="geometry" />
        </mxCell>
        <mxCell id="MFz6BAkq9LY2ZdtFGx5P-2" value="2.0&lt;br&gt;Register user" style="ellipse;whiteSpace=wrap;html=1;" parent="1" vertex="1">
          <mxGeometry x="390" y="230" width="110" height="100" as="geometry" />
        </mxCell>
        <mxCell id="MFz6BAkq9LY2ZdtFGx5P-7" value="Log in data" style="edgeStyle=orthogonalEdgeStyle;rounded=0;orthogonalLoop=1;jettySize=auto;html=1;exitX=0.75;exitY=0;exitDx=0;exitDy=0;entryX=0;entryY=0.5;entryDx=0;entryDy=0;" parent="1" source="MFz6BAkq9LY2ZdtFGx5P-3" target="MFz6BAkq9LY2ZdtFGx5P-1" edge="1">
          <mxGeometry x="0.2577" relative="1" as="geometry">
            <mxPoint as="offset" />
          </mxGeometry>
        </mxCell>
        <mxCell id="MFz6BAkq9LY2ZdtFGx5P-3" value="&lt;font style=&quot;font-size: 12px;&quot;&gt;users&lt;/font&gt;" style="rounded=1;whiteSpace=wrap;html=1;" parent="1" vertex="1">
          <mxGeometry x="90" y="240" width="170" height="80" as="geometry" />
        </mxCell>
        <mxCell id="MFz6BAkq9LY2ZdtFGx5P-17" style="edgeStyle=orthogonalEdgeStyle;rounded=0;orthogonalLoop=1;jettySize=auto;html=1;exitX=0;exitY=1;exitDx=0;exitDy=0;entryX=1;entryY=1;entryDx=0;entryDy=0;" parent="1" source="MFz6BAkq9LY2ZdtFGx5P-4" target="MFz6BAkq9LY2ZdtFGx5P-6" edge="1">
          <mxGeometry relative="1" as="geometry">
            <Array as="points">
              <mxPoint x="406" y="645" />
              <mxPoint x="210" y="645" />
            </Array>
          </mxGeometry>
        </mxCell>
        <mxCell id="MFz6BAkq9LY2ZdtFGx5P-4" value="3.0&lt;br&gt;Receive report request&amp;nbsp; and process" style="ellipse;whiteSpace=wrap;html=1;aspect=fixed;" parent="1" vertex="1">
          <mxGeometry x="390" y="540" width="110" height="110" as="geometry" />
        </mxCell>
        <mxCell id="MFz6BAkq9LY2ZdtFGx5P-15" style="edgeStyle=orthogonalEdgeStyle;rounded=0;orthogonalLoop=1;jettySize=auto;html=1;exitX=0.5;exitY=1;exitDx=0;exitDy=0;" parent="1" source="MFz6BAkq9LY2ZdtFGx5P-5" target="MFz6BAkq9LY2ZdtFGx5P-6" edge="1">
          <mxGeometry relative="1" as="geometry">
            <Array as="points">
              <mxPoint x="445" y="835" />
              <mxPoint x="150" y="835" />
            </Array>
          </mxGeometry>
        </mxCell>
        <mxCell id="MFz6BAkq9LY2ZdtFGx5P-20" style="edgeStyle=orthogonalEdgeStyle;rounded=0;orthogonalLoop=1;jettySize=auto;html=1;exitX=1;exitY=0.5;exitDx=0;exitDy=0;entryX=0;entryY=0.5;entryDx=0;entryDy=0;" parent="1" source="MFz6BAkq9LY2ZdtFGx5P-5" target="MFz6BAkq9LY2ZdtFGx5P-19" edge="1">
          <mxGeometry relative="1" as="geometry" />
        </mxCell>
        <mxCell id="MFz6BAkq9LY2ZdtFGx5P-5" value="4.0&lt;br&gt;Report process" style="ellipse;whiteSpace=wrap;html=1;aspect=fixed;" parent="1" vertex="1">
          <mxGeometry x="400" y="705" width="90" height="90" as="geometry" />
        </mxCell>
        <mxCell id="MFz6BAkq9LY2ZdtFGx5P-16" style="edgeStyle=orthogonalEdgeStyle;rounded=0;orthogonalLoop=1;jettySize=auto;html=1;exitX=0.75;exitY=1;exitDx=0;exitDy=0;entryX=0;entryY=0.5;entryDx=0;entryDy=0;" parent="1" source="MFz6BAkq9LY2ZdtFGx5P-6" target="MFz6BAkq9LY2ZdtFGx5P-5" edge="1">
          <mxGeometry relative="1" as="geometry">
            <mxPoint x="310" y="795" as="targetPoint" />
          </mxGeometry>
        </mxCell>
        <mxCell id="MFz6BAkq9LY2ZdtFGx5P-18" style="edgeStyle=orthogonalEdgeStyle;rounded=0;orthogonalLoop=1;jettySize=auto;html=1;exitX=1;exitY=0.5;exitDx=0;exitDy=0;" parent="1" source="MFz6BAkq9LY2ZdtFGx5P-6" target="MFz6BAkq9LY2ZdtFGx5P-4" edge="1">
          <mxGeometry relative="1" as="geometry" />
        </mxCell>
        <mxCell id="MFz6BAkq9LY2ZdtFGx5P-6" value="Reporter" style="rounded=1;whiteSpace=wrap;html=1;" parent="1" vertex="1">
          <mxGeometry x="90" y="565" width="120" height="60" as="geometry" />
        </mxCell>
        <mxCell id="MFz6BAkq9LY2ZdtFGx5P-9" value="User information" style="edgeStyle=orthogonalEdgeStyle;rounded=0;orthogonalLoop=1;jettySize=auto;html=1;exitX=1;exitY=0.5;exitDx=0;exitDy=0;entryX=0;entryY=0.5;entryDx=0;entryDy=0;" parent="1" source="MFz6BAkq9LY2ZdtFGx5P-3" target="MFz6BAkq9LY2ZdtFGx5P-2" edge="1">
          <mxGeometry relative="1" as="geometry" />
        </mxCell>
        <mxCell id="MFz6BAkq9LY2ZdtFGx5P-10" value="if success, show home page" style="edgeStyle=orthogonalEdgeStyle;rounded=0;orthogonalLoop=1;jettySize=auto;html=1;exitX=0.5;exitY=1;exitDx=0;exitDy=0;entryX=0.706;entryY=1;entryDx=0;entryDy=0;entryPerimeter=0;" parent="1" source="MFz6BAkq9LY2ZdtFGx5P-2" target="MFz6BAkq9LY2ZdtFGx5P-3" edge="1">
          <mxGeometry relative="1" as="geometry" />
        </mxCell>
        <mxCell id="MFz6BAkq9LY2ZdtFGx5P-14" value="User data" style="edgeStyle=orthogonalEdgeStyle;rounded=0;orthogonalLoop=1;jettySize=auto;html=1;exitX=0.5;exitY=0;exitDx=0;exitDy=0;entryX=1;entryY=0.5;entryDx=0;entryDy=0;" parent="1" source="MFz6BAkq9LY2ZdtFGx5P-11" target="MFz6BAkq9LY2ZdtFGx5P-1" edge="1">
          <mxGeometry x="0.5094" relative="1" as="geometry">
            <mxPoint as="offset" />
          </mxGeometry>
        </mxCell>
        <mxCell id="MFz6BAkq9LY2ZdtFGx5P-11" value="User" style="rounded=0;whiteSpace=wrap;html=1;" parent="1" vertex="1">
          <mxGeometry x="610" y="250" width="120" height="60" as="geometry" />
        </mxCell>
        <mxCell id="MFz6BAkq9LY2ZdtFGx5P-13" value="New user data" style="edgeStyle=orthogonalEdgeStyle;rounded=0;orthogonalLoop=1;jettySize=auto;html=1;exitX=1;exitY=0.5;exitDx=0;exitDy=0;entryX=0;entryY=0.5;entryDx=0;entryDy=0;" parent="1" source="MFz6BAkq9LY2ZdtFGx5P-2" target="MFz6BAkq9LY2ZdtFGx5P-11" edge="1">
          <mxGeometry relative="1" as="geometry" />
        </mxCell>
        <mxCell id="MFz6BAkq9LY2ZdtFGx5P-19" value="" style="rounded=0;whiteSpace=wrap;html=1;" parent="1" vertex="1">
          <mxGeometry x="640" y="720" width="120" height="60" as="geometry" />
        </mxCell>
      </root>
    </mxGraphModel>
  </diagram>
  <diagram id="jV2_xORwEmi-LJepNDIJ" name="Customer">
    <mxGraphModel dx="1050" dy="557" grid="1" gridSize="10" guides="1" tooltips="1" connect="1" arrows="1" fold="1" page="1" pageScale="1" pageWidth="850" pageHeight="1100" math="0" shadow="0">
      <root>
        <mxCell id="0" />
        <mxCell id="1" parent="0" />
      </root>
    </mxGraphModel>
  </diagram>
  <diagram id="DgyAZOA2_8QquCHMks2_" name="Delivery">
    <mxGraphModel dx="1050" dy="557" grid="1" gridSize="10" guides="1" tooltips="1" connect="1" arrows="1" fold="1" page="1" pageScale="1" pageWidth="850" pageHeight="1100" math="0" shadow="0">
      <root>
        <mxCell id="0" />
        <mxCell id="1" parent="0" />
      </root>
    </mxGraphModel>
  </diagram>
  <diagram id="yRMIOgFgTZziHyOYgNn_" name="Restaurant">
    <mxGraphModel dx="1050" dy="557" grid="1" gridSize="10" guides="1" tooltips="1" connect="1" arrows="1" fold="1" page="1" pageScale="1" pageWidth="850" pageHeight="1100" math="0" shadow="0">
      <root>
        <mxCell id="0" />
        <mxCell id="1" parent="0" />
        <mxCell id="x1UQK5rXL-eoymmViL0V-1" value="Log in data" style="edgeStyle=orthogonalEdgeStyle;rounded=0;orthogonalLoop=1;jettySize=auto;html=1;exitX=1;exitY=0.5;exitDx=0;exitDy=0;entryX=0;entryY=0.5;entryDx=0;entryDy=0;" parent="1" source="x1UQK5rXL-eoymmViL0V-2" target="x1UQK5rXL-eoymmViL0V-5" edge="1">
          <mxGeometry relative="1" as="geometry" />
        </mxCell>
        <mxCell id="x1UQK5rXL-eoymmViL0V-2" value="Restaurant" style="rounded=1;whiteSpace=wrap;html=1;" parent="1" vertex="1">
          <mxGeometry x="90" y="90" width="120" height="60" as="geometry" />
        </mxCell>
        <mxCell id="x1UQK5rXL-eoymmViL0V-3" value="Restaurant data" style="edgeStyle=orthogonalEdgeStyle;rounded=0;orthogonalLoop=1;jettySize=auto;html=1;exitX=0;exitY=0.5;exitDx=0;exitDy=0;" parent="1" source="x1UQK5rXL-eoymmViL0V-4" target="x1UQK5rXL-eoymmViL0V-5" edge="1">
          <mxGeometry relative="1" as="geometry" />
        </mxCell>
        <mxCell id="x1UQK5rXL-eoymmViL0V-4" value="Restaurant" style="rounded=0;whiteSpace=wrap;html=1;strokeColor=default;" parent="1" vertex="1">
          <mxGeometry x="620" y="90" width="120" height="60" as="geometry" />
        </mxCell>
        <mxCell id="x1UQK5rXL-eoymmViL0V-5" value="Login" style="ellipse;whiteSpace=wrap;html=1;aspect=fixed;" parent="1" vertex="1">
          <mxGeometry x="385" y="80" width="80" height="80" as="geometry" />
        </mxCell>
        <mxCell id="x1UQK5rXL-eoymmViL0V-6" value="if success, show home page" style="edgeStyle=orthogonalEdgeStyle;rounded=0;orthogonalLoop=1;jettySize=auto;html=1;exitX=0;exitY=1;exitDx=0;exitDy=0;entryX=0.787;entryY=1.002;entryDx=0;entryDy=0;entryPerimeter=0;" parent="1" source="x1UQK5rXL-eoymmViL0V-5" target="x1UQK5rXL-eoymmViL0V-2" edge="1">
          <mxGeometry relative="1" as="geometry">
            <Array as="points">
              <mxPoint x="397" y="160" />
              <mxPoint x="184" y="160" />
            </Array>
          </mxGeometry>
        </mxCell>
        <mxCell id="5H-luCC20Rd0PItCOPUO-2" value="processing of an order" style="ellipse;whiteSpace=wrap;html=1;aspect=fixed;" parent="1" vertex="1">
          <mxGeometry x="402.5555555555556" y="310" width="95.61476729004659" height="95.61476729004659" as="geometry" />
        </mxCell>
        <mxCell id="5H-luCC20Rd0PItCOPUO-3" value="update sold menu item" style="ellipse;whiteSpace=wrap;html=1;aspect=fixed;" parent="1" vertex="1">
          <mxGeometry x="409.9629629629629" y="526.6666666666666" width="84.9909042578192" height="84.9909042578192" as="geometry" />
        </mxCell>
        <mxCell id="5H-luCC20Rd0PItCOPUO-21" value="sell" style="edgeStyle=orthogonalEdgeStyle;rounded=0;orthogonalLoop=1;jettySize=auto;html=1;" parent="1" source="5H-luCC20Rd0PItCOPUO-2" target="5H-luCC20Rd0PItCOPUO-3" edge="1">
          <mxGeometry relative="1" as="geometry" />
        </mxCell>
        <mxCell id="5H-luCC20Rd0PItCOPUO-5" value="Database of sold menu item" style="rounded=0;whiteSpace=wrap;html=1;" parent="1" vertex="1">
          <mxGeometry x="47" y="542.1428571428571" width="177.7777777777778" height="92.85714285714285" as="geometry" />
        </mxCell>
        <mxCell id="5H-luCC20Rd0PItCOPUO-24" value="stored sold menu" style="edgeStyle=orthogonalEdgeStyle;rounded=0;orthogonalLoop=1;jettySize=auto;html=1;" parent="1" source="5H-luCC20Rd0PItCOPUO-3" target="5H-luCC20Rd0PItCOPUO-5" edge="1">
          <mxGeometry relative="1" as="geometry" />
        </mxCell>
        <mxCell id="5H-luCC20Rd0PItCOPUO-8" value="update menu" style="ellipse;whiteSpace=wrap;html=1;aspect=fixed;" parent="1" vertex="1">
          <mxGeometry x="654.4074074074073" y="511.19047619047615" width="84.9909042578192" height="84.9909042578192" as="geometry" />
        </mxCell>
        <mxCell id="5H-luCC20Rd0PItCOPUO-22" value="data" style="edgeStyle=orthogonalEdgeStyle;rounded=0;orthogonalLoop=1;jettySize=auto;html=1;exitX=1;exitY=1;exitDx=0;exitDy=0;" parent="1" source="5H-luCC20Rd0PItCOPUO-2" target="5H-luCC20Rd0PItCOPUO-8" edge="1">
          <mxGeometry x="0.4472" relative="1" as="geometry">
            <mxPoint x="713.6666666666665" y="511.19047619047615" as="targetPoint" />
            <Array as="points">
              <mxPoint x="516.6296296296296" y="526.6666666666666" />
            </Array>
            <mxPoint as="offset" />
          </mxGeometry>
        </mxCell>
        <mxCell id="5H-luCC20Rd0PItCOPUO-9" value="menu data base" style="rounded=0;whiteSpace=wrap;html=1;" parent="1" vertex="1">
          <mxGeometry x="624.7777777777778" y="712.3809523809523" width="177.7777777777778" height="92.85714285714285" as="geometry" />
        </mxCell>
        <mxCell id="5H-luCC20Rd0PItCOPUO-23" value="stored menu data" style="edgeStyle=orthogonalEdgeStyle;rounded=0;orthogonalLoop=1;jettySize=auto;html=1;" parent="1" source="5H-luCC20Rd0PItCOPUO-8" target="5H-luCC20Rd0PItCOPUO-9" edge="1">
          <mxGeometry relative="1" as="geometry" />
        </mxCell>
        <mxCell id="5H-luCC20Rd0PItCOPUO-10" value="generate management" style="ellipse;whiteSpace=wrap;html=1;aspect=fixed;" parent="1" vertex="1">
          <mxGeometry x="409.9629629629629" y="681.4285714285713" width="84.9909042578192" height="84.9909042578192" as="geometry" />
        </mxCell>
        <mxCell id="5H-luCC20Rd0PItCOPUO-25" value="inform daily data" style="edgeStyle=orthogonalEdgeStyle;rounded=0;orthogonalLoop=1;jettySize=auto;html=1;entryX=0;entryY=0.5;entryDx=0;entryDy=0;" parent="1" source="5H-luCC20Rd0PItCOPUO-5" target="5H-luCC20Rd0PItCOPUO-10" edge="1">
          <mxGeometry relative="1" as="geometry">
            <mxPoint x="284.03703703703707" y="851.6666666666666" as="targetPoint" />
            <Array as="points">
              <mxPoint x="195.14814814814818" y="743.3333333333333" />
            </Array>
          </mxGeometry>
        </mxCell>
        <mxCell id="5H-luCC20Rd0PItCOPUO-14" value="user" style="rounded=1;whiteSpace=wrap;html=1;" parent="1" vertex="1">
          <mxGeometry x="106.99925925925926" y="322.9814285714285" width="148.14814814814818" height="69.64285714285714" as="geometry" />
        </mxCell>
        <mxCell id="5H-luCC20Rd0PItCOPUO-20" value="receipt" style="edgeStyle=orthogonalEdgeStyle;rounded=0;orthogonalLoop=1;jettySize=auto;html=1;exitX=0;exitY=1;exitDx=0;exitDy=0;entryX=0.75;entryY=1;entryDx=0;entryDy=0;" parent="1" source="5H-luCC20Rd0PItCOPUO-2" target="5H-luCC20Rd0PItCOPUO-14" edge="1">
          <mxGeometry relative="1" as="geometry">
            <Array as="points">
              <mxPoint x="417" y="465" />
              <mxPoint x="218" y="465" />
            </Array>
          </mxGeometry>
        </mxCell>
        <mxCell id="5H-luCC20Rd0PItCOPUO-15" value="kitchen" style="rounded=1;whiteSpace=wrap;html=1;" parent="1" vertex="1">
          <mxGeometry x="647" y="334.40999999999997" width="117.78" height="46.79" as="geometry" />
        </mxCell>
        <mxCell id="5H-luCC20Rd0PItCOPUO-18" value="food order" style="edgeStyle=orthogonalEdgeStyle;rounded=0;orthogonalLoop=1;jettySize=auto;html=1;entryX=0;entryY=0.5;entryDx=0;entryDy=0;" parent="1" source="5H-luCC20Rd0PItCOPUO-2" target="5H-luCC20Rd0PItCOPUO-15" edge="1">
          <mxGeometry relative="1" as="geometry" />
        </mxCell>
        <mxCell id="5H-luCC20Rd0PItCOPUO-16" value="restaurant manager" style="rounded=1;whiteSpace=wrap;html=1;" parent="1" vertex="1">
          <mxGeometry x="380.33333333333326" y="867.1428571428571" width="177.7777777777778" height="92.85714285714285" as="geometry" />
        </mxCell>
        <mxCell id="5H-luCC20Rd0PItCOPUO-26" value="report" style="edgeStyle=orthogonalEdgeStyle;rounded=0;orthogonalLoop=1;jettySize=auto;html=1;" parent="1" source="5H-luCC20Rd0PItCOPUO-10" target="5H-luCC20Rd0PItCOPUO-16" edge="1">
          <mxGeometry relative="1" as="geometry" />
        </mxCell>
        <mxCell id="5H-luCC20Rd0PItCOPUO-17" value="order food" style="edgeStyle=orthogonalEdgeStyle;rounded=0;orthogonalLoop=1;jettySize=auto;html=1;entryX=0;entryY=0.5;entryDx=0;entryDy=0;" parent="1" source="5H-luCC20Rd0PItCOPUO-14" target="5H-luCC20Rd0PItCOPUO-2" edge="1">
          <mxGeometry relative="1" as="geometry">
            <mxPoint x="402.5555555555556" y="371.9047619047619" as="targetPoint" />
            <Array as="points" />
          </mxGeometry>
        </mxCell>
      </root>
    </mxGraphModel>
  </diagram>
  <diagram id="_-1gddyZd6XeUl6q-HcB" name="restaurant2">
    <mxGraphModel dx="1050" dy="557" grid="1" gridSize="10" guides="1" tooltips="1" connect="1" arrows="1" fold="1" page="1" pageScale="1" pageWidth="850" pageHeight="1100" math="0" shadow="0">
      <root>
        <mxCell id="0" />
        <mxCell id="1" parent="0" />
        <mxCell id="75lfQwVC1Wf0cRtL6mPA-12" value="" style="group" parent="1" connectable="0" vertex="1">
          <mxGeometry x="75" y="70" width="700" height="340" as="geometry" />
        </mxCell>
        <mxCell id="75lfQwVC1Wf0cRtL6mPA-1" value="user" style="rounded=1;whiteSpace=wrap;html=1;" parent="75lfQwVC1Wf0cRtL6mPA-12" vertex="1">
          <mxGeometry y="113.3333333333333" width="111.50442477876106" height="53.33333333333332" as="geometry" />
        </mxCell>
        <mxCell id="75lfQwVC1Wf0cRtL6mPA-4" value="get an&amp;nbsp; order" style="ellipse;whiteSpace=wrap;html=1;aspect=fixed;" parent="75lfQwVC1Wf0cRtL6mPA-12" vertex="1">
          <mxGeometry x="272.5663716814159" width="123.8938053097345" height="123.8938053097345" as="geometry" />
        </mxCell>
        <mxCell id="75lfQwVC1Wf0cRtL6mPA-5" value="kitchen" style="rounded=1;whiteSpace=wrap;html=1;" parent="75lfQwVC1Wf0cRtL6mPA-12" vertex="1">
          <mxGeometry x="535.8407079646017" y="33.33333333333333" width="136.28318584070794" height="66.66666666666666" as="geometry" />
        </mxCell>
        <mxCell id="75lfQwVC1Wf0cRtL6mPA-3" value="food order" style="edgeStyle=orthogonalEdgeStyle;rounded=0;orthogonalLoop=1;jettySize=auto;html=1;" parent="75lfQwVC1Wf0cRtL6mPA-12" source="75lfQwVC1Wf0cRtL6mPA-4" target="75lfQwVC1Wf0cRtL6mPA-5" edge="1">
          <mxGeometry relative="1" as="geometry" />
        </mxCell>
        <mxCell id="75lfQwVC1Wf0cRtL6mPA-6" value="restaurant manager" style="rounded=1;whiteSpace=wrap;html=1;" parent="75lfQwVC1Wf0cRtL6mPA-12" vertex="1">
          <mxGeometry x="507.96460176991144" y="219.99999999999994" width="192.03539823008848" height="93.33333333333333" as="geometry" />
        </mxCell>
        <mxCell id="75lfQwVC1Wf0cRtL6mPA-7" value="bill" style="edgeStyle=orthogonalEdgeStyle;rounded=0;orthogonalLoop=1;jettySize=auto;html=1;" parent="75lfQwVC1Wf0cRtL6mPA-12" source="75lfQwVC1Wf0cRtL6mPA-8" target="75lfQwVC1Wf0cRtL6mPA-6" edge="1">
          <mxGeometry relative="1" as="geometry" />
        </mxCell>
        <mxCell id="75lfQwVC1Wf0cRtL6mPA-8" value="prepare the bill" style="ellipse;whiteSpace=wrap;html=1;aspect=fixed;" parent="75lfQwVC1Wf0cRtL6mPA-12" vertex="1">
          <mxGeometry x="266.3716814159292" y="193.3333333333333" width="136.28318584070794" height="136.28318584070794" as="geometry" />
        </mxCell>
        <mxCell id="75lfQwVC1Wf0cRtL6mPA-9" value="order" style="edgeStyle=orthogonalEdgeStyle;rounded=0;orthogonalLoop=1;jettySize=auto;html=1;exitX=0.75;exitY=0;exitDx=0;exitDy=0;entryX=0.026;entryY=0.417;entryDx=0;entryDy=0;entryPerimeter=0;" parent="75lfQwVC1Wf0cRtL6mPA-12" source="75lfQwVC1Wf0cRtL6mPA-1" target="75lfQwVC1Wf0cRtL6mPA-4" edge="1">
          <mxGeometry relative="1" as="geometry" />
        </mxCell>
        <mxCell id="75lfQwVC1Wf0cRtL6mPA-2" value="food order" style="edgeStyle=orthogonalEdgeStyle;rounded=0;orthogonalLoop=1;jettySize=auto;html=1;" parent="75lfQwVC1Wf0cRtL6mPA-12" source="75lfQwVC1Wf0cRtL6mPA-4" target="75lfQwVC1Wf0cRtL6mPA-8" edge="1">
          <mxGeometry relative="1" as="geometry" />
        </mxCell>
        <mxCell id="75lfQwVC1Wf0cRtL6mPA-10" style="edgeStyle=orthogonalEdgeStyle;rounded=0;orthogonalLoop=1;jettySize=auto;html=1;exitX=0.75;exitY=1;exitDx=0;exitDy=0;entryX=0.007;entryY=0.544;entryDx=0;entryDy=0;entryPerimeter=0;startArrow=classic;startFill=1;endArrow=none;endFill=0;" parent="75lfQwVC1Wf0cRtL6mPA-12" source="75lfQwVC1Wf0cRtL6mPA-1" target="75lfQwVC1Wf0cRtL6mPA-8" edge="1">
          <mxGeometry relative="1" as="geometry" />
        </mxCell>
        <mxCell id="75lfQwVC1Wf0cRtL6mPA-11" value="receipt" style="edgeLabel;html=1;align=center;verticalAlign=middle;resizable=0;points=[];" parent="75lfQwVC1Wf0cRtL6mPA-10" connectable="0" vertex="1">
          <mxGeometry x="0.0615" y="-3" relative="1" as="geometry">
            <mxPoint as="offset" />
          </mxGeometry>
        </mxCell>
      </root>
    </mxGraphModel>
  </diagram>
  <diagram id="QW9v1AQHQjg8yljwb-eg" name="Admin">
    <mxGraphModel dx="1050" dy="557" grid="1" gridSize="10" guides="1" tooltips="1" connect="1" arrows="1" fold="1" page="1" pageScale="1" pageWidth="850" pageHeight="1100" math="0" shadow="0">
      <root>
        <mxCell id="0" />
        <mxCell id="1" parent="0" />
        <mxCell id="V6z1b4jEAUl-P3jl5kzp-1" value="Log in data" style="edgeStyle=orthogonalEdgeStyle;rounded=0;orthogonalLoop=1;jettySize=auto;html=1;exitX=1;exitY=0.5;exitDx=0;exitDy=0;entryX=0;entryY=0.5;entryDx=0;entryDy=0;" parent="1" source="V6z1b4jEAUl-P3jl5kzp-2" target="V6z1b4jEAUl-P3jl5kzp-5" edge="1">
          <mxGeometry relative="1" as="geometry" />
        </mxCell>
        <mxCell id="V6z1b4jEAUl-P3jl5kzp-2" value="Admin" style="rounded=1;whiteSpace=wrap;html=1;" parent="1" vertex="1">
          <mxGeometry x="90" y="80" width="120" height="60" as="geometry" />
        </mxCell>
        <mxCell id="V6z1b4jEAUl-P3jl5kzp-3" value="Admin data" style="edgeStyle=orthogonalEdgeStyle;rounded=0;orthogonalLoop=1;jettySize=auto;html=1;exitX=0;exitY=0.5;exitDx=0;exitDy=0;" parent="1" source="V6z1b4jEAUl-P3jl5kzp-4" target="V6z1b4jEAUl-P3jl5kzp-5" edge="1">
          <mxGeometry relative="1" as="geometry" />
        </mxCell>
        <mxCell id="V6z1b4jEAUl-P3jl5kzp-4" value="Admin" style="rounded=0;whiteSpace=wrap;html=1;" parent="1" vertex="1">
          <mxGeometry x="620" y="80" width="120" height="60" as="geometry" />
        </mxCell>
        <mxCell id="V6z1b4jEAUl-P3jl5kzp-5" value="Login" style="ellipse;whiteSpace=wrap;html=1;aspect=fixed;" parent="1" vertex="1">
          <mxGeometry x="385" y="70" width="80" height="80" as="geometry" />
        </mxCell>
        <mxCell id="V6z1b4jEAUl-P3jl5kzp-6" value="if success, show home page" style="edgeStyle=orthogonalEdgeStyle;rounded=0;orthogonalLoop=1;jettySize=auto;html=1;exitX=0;exitY=1;exitDx=0;exitDy=0;entryX=0.787;entryY=1.002;entryDx=0;entryDy=0;entryPerimeter=0;" parent="1" source="V6z1b4jEAUl-P3jl5kzp-5" target="V6z1b4jEAUl-P3jl5kzp-2" edge="1">
          <mxGeometry relative="1" as="geometry">
            <Array as="points">
              <mxPoint x="397" y="150" />
              <mxPoint x="184" y="150" />
            </Array>
          </mxGeometry>
        </mxCell>
        <mxCell id="ZTxALWp2nxkmB7Zcn3Q2-10" value="check order detail" style="edgeStyle=orthogonalEdgeStyle;rounded=0;orthogonalLoop=1;jettySize=auto;html=1;exitX=1;exitY=0;exitDx=0;exitDy=0;entryX=0;entryY=0.25;entryDx=0;entryDy=0;" parent="1" source="V6z1b4jEAUl-P3jl5kzp-7" target="ZTxALWp2nxkmB7Zcn3Q2-6" edge="1">
          <mxGeometry relative="1" as="geometry" />
        </mxCell>
        <mxCell id="ZTxALWp2nxkmB7Zcn3Q2-24" value="Response" style="edgeStyle=orthogonalEdgeStyle;rounded=0;orthogonalLoop=1;jettySize=auto;html=1;exitX=0;exitY=1;exitDx=0;exitDy=0;entryX=0.69;entryY=0.982;entryDx=0;entryDy=0;entryPerimeter=0;" parent="1" target="ZTxALWp2nxkmB7Zcn3Q2-1" edge="1">
          <mxGeometry relative="1" as="geometry">
            <mxPoint x="406.7157287525381" y="448.2842712474618" as="sourcePoint" />
            <mxPoint x="180" y="310.00000000000006" as="targetPoint" />
            <Array as="points">
              <mxPoint x="212" y="448" />
              <mxPoint x="212" y="320" />
            </Array>
          </mxGeometry>
        </mxCell>
        <mxCell id="V6z1b4jEAUl-P3jl5kzp-7" value="view order" style="ellipse;whiteSpace=wrap;html=1;aspect=fixed;" parent="1" vertex="1">
          <mxGeometry x="385" y="380" width="80" height="80" as="geometry" />
        </mxCell>
        <mxCell id="ZTxALWp2nxkmB7Zcn3Q2-8" value="check product detail" style="edgeStyle=orthogonalEdgeStyle;rounded=0;orthogonalLoop=1;jettySize=auto;html=1;exitX=1;exitY=0;exitDx=0;exitDy=0;entryX=0;entryY=0.25;entryDx=0;entryDy=0;" parent="1" source="V6z1b4jEAUl-P3jl5kzp-8" target="ZTxALWp2nxkmB7Zcn3Q2-5" edge="1">
          <mxGeometry relative="1" as="geometry">
            <Array as="points">
              <mxPoint x="453" y="255" />
            </Array>
          </mxGeometry>
        </mxCell>
        <mxCell id="V6z1b4jEAUl-P3jl5kzp-8" value="Manage product" style="ellipse;whiteSpace=wrap;html=1;aspect=fixed;" parent="1" vertex="1">
          <mxGeometry x="385" y="240" width="80" height="80" as="geometry" />
        </mxCell>
        <mxCell id="ZTxALWp2nxkmB7Zcn3Q2-12" value="check payment detail" style="edgeStyle=orthogonalEdgeStyle;rounded=0;orthogonalLoop=1;jettySize=auto;html=1;exitX=1;exitY=0;exitDx=0;exitDy=0;entryX=0;entryY=0.25;entryDx=0;entryDy=0;" parent="1" source="V6z1b4jEAUl-P3jl5kzp-9" target="ZTxALWp2nxkmB7Zcn3Q2-7" edge="1">
          <mxGeometry relative="1" as="geometry" />
        </mxCell>
        <mxCell id="V6z1b4jEAUl-P3jl5kzp-9" value="view payment" style="ellipse;whiteSpace=wrap;html=1;aspect=fixed;" parent="1" vertex="1">
          <mxGeometry x="385" y="540" width="80" height="80" as="geometry" />
        </mxCell>
        <mxCell id="V6z1b4jEAUl-P3jl5kzp-10" style="edgeStyle=orthogonalEdgeStyle;rounded=0;orthogonalLoop=1;jettySize=auto;html=1;exitX=0.5;exitY=1;exitDx=0;exitDy=0;" parent="1" source="V6z1b4jEAUl-P3jl5kzp-8" target="V6z1b4jEAUl-P3jl5kzp-8" edge="1">
          <mxGeometry relative="1" as="geometry" />
        </mxCell>
        <mxCell id="ZTxALWp2nxkmB7Zcn3Q2-17" value="Request for report" style="edgeStyle=orthogonalEdgeStyle;rounded=0;orthogonalLoop=1;jettySize=auto;html=1;exitX=0.25;exitY=1;exitDx=0;exitDy=0;entryX=0;entryY=0.5;entryDx=0;entryDy=0;" parent="1" source="ZTxALWp2nxkmB7Zcn3Q2-1" target="ZTxALWp2nxkmB7Zcn3Q2-2" edge="1">
          <mxGeometry x="0.5912" relative="1" as="geometry">
            <Array as="points">
              <mxPoint x="110" y="310" />
              <mxPoint x="110" y="700" />
            </Array>
            <mxPoint as="offset" />
          </mxGeometry>
        </mxCell>
        <mxCell id="ZTxALWp2nxkmB7Zcn3Q2-20" value="Request for view payment" style="edgeStyle=orthogonalEdgeStyle;rounded=0;orthogonalLoop=1;jettySize=auto;html=1;exitX=0.655;exitY=1.014;exitDx=0;exitDy=0;entryX=0;entryY=0.5;entryDx=0;entryDy=0;exitPerimeter=0;" parent="1" source="ZTxALWp2nxkmB7Zcn3Q2-1" target="V6z1b4jEAUl-P3jl5kzp-9" edge="1">
          <mxGeometry x="0.5413" relative="1" as="geometry">
            <Array as="points">
              <mxPoint x="204" y="310" />
              <mxPoint x="170" y="310" />
              <mxPoint x="170" y="580" />
            </Array>
            <mxPoint as="offset" />
          </mxGeometry>
        </mxCell>
        <mxCell id="ZTxALWp2nxkmB7Zcn3Q2-23" value="Requesr for view order" style="edgeStyle=orthogonalEdgeStyle;rounded=0;orthogonalLoop=1;jettySize=auto;html=1;exitX=0.868;exitY=1.02;exitDx=0;exitDy=0;entryX=0;entryY=0.5;entryDx=0;entryDy=0;exitPerimeter=0;" parent="1" source="ZTxALWp2nxkmB7Zcn3Q2-1" target="V6z1b4jEAUl-P3jl5kzp-7" edge="1">
          <mxGeometry relative="1" as="geometry">
            <Array as="points">
              <mxPoint x="251" y="310" />
              <mxPoint x="250" y="310" />
              <mxPoint x="250" y="420" />
            </Array>
          </mxGeometry>
        </mxCell>
        <mxCell id="ZTxALWp2nxkmB7Zcn3Q2-1" value="Admin" style="rounded=1;whiteSpace=wrap;html=1;" parent="1" vertex="1">
          <mxGeometry x="60" y="210" width="220" height="100" as="geometry" />
        </mxCell>
        <mxCell id="ZTxALWp2nxkmB7Zcn3Q2-2" value="Report" style="ellipse;whiteSpace=wrap;html=1;aspect=fixed;" parent="1" vertex="1">
          <mxGeometry x="380" y="660" width="80" height="80" as="geometry" />
        </mxCell>
        <mxCell id="ZTxALWp2nxkmB7Zcn3Q2-9" value="response" style="edgeStyle=orthogonalEdgeStyle;rounded=0;orthogonalLoop=1;jettySize=auto;html=1;exitX=0;exitY=0.75;exitDx=0;exitDy=0;entryX=1;entryY=1;entryDx=0;entryDy=0;" parent="1" source="ZTxALWp2nxkmB7Zcn3Q2-5" target="V6z1b4jEAUl-P3jl5kzp-8" edge="1">
          <mxGeometry relative="1" as="geometry" />
        </mxCell>
        <mxCell id="ZTxALWp2nxkmB7Zcn3Q2-5" value="product" style="rounded=0;whiteSpace=wrap;html=1;" parent="1" vertex="1">
          <mxGeometry x="670" y="240" width="120" height="60" as="geometry" />
        </mxCell>
        <mxCell id="ZTxALWp2nxkmB7Zcn3Q2-6" value="order" style="rounded=0;whiteSpace=wrap;html=1;" parent="1" vertex="1">
          <mxGeometry x="670" y="390" width="120" height="60" as="geometry" />
        </mxCell>
        <mxCell id="ZTxALWp2nxkmB7Zcn3Q2-14" value="response" style="edgeStyle=orthogonalEdgeStyle;rounded=0;orthogonalLoop=1;jettySize=auto;html=1;exitX=0;exitY=0.75;exitDx=0;exitDy=0;entryX=1;entryY=1;entryDx=0;entryDy=0;" parent="1" source="ZTxALWp2nxkmB7Zcn3Q2-7" target="V6z1b4jEAUl-P3jl5kzp-9" edge="1">
          <mxGeometry relative="1" as="geometry" />
        </mxCell>
        <mxCell id="ZTxALWp2nxkmB7Zcn3Q2-16" value="Generate report for order" style="edgeStyle=orthogonalEdgeStyle;rounded=0;orthogonalLoop=1;jettySize=auto;html=1;exitX=0.5;exitY=1;exitDx=0;exitDy=0;entryX=1;entryY=1;entryDx=0;entryDy=0;" parent="1" source="ZTxALWp2nxkmB7Zcn3Q2-7" target="ZTxALWp2nxkmB7Zcn3Q2-2" edge="1">
          <mxGeometry relative="1" as="geometry">
            <Array as="points">
              <mxPoint x="730" y="728" />
            </Array>
          </mxGeometry>
        </mxCell>
        <mxCell id="ZTxALWp2nxkmB7Zcn3Q2-7" value="Payment" style="rounded=0;whiteSpace=wrap;html=1;" parent="1" vertex="1">
          <mxGeometry x="670" y="560" width="120" height="60" as="geometry" />
        </mxCell>
        <mxCell id="ZTxALWp2nxkmB7Zcn3Q2-11" value="response" style="edgeStyle=orthogonalEdgeStyle;rounded=0;orthogonalLoop=1;jettySize=auto;html=1;exitX=0;exitY=0.75;exitDx=0;exitDy=0;entryX=0.95;entryY=0.694;entryDx=0;entryDy=0;entryPerimeter=0;" parent="1" source="ZTxALWp2nxkmB7Zcn3Q2-6" target="V6z1b4jEAUl-P3jl5kzp-7" edge="1">
          <mxGeometry relative="1" as="geometry" />
        </mxCell>
        <mxCell id="ZTxALWp2nxkmB7Zcn3Q2-15" value="Generate report for payment" style="edgeStyle=orthogonalEdgeStyle;rounded=0;orthogonalLoop=1;jettySize=auto;html=1;exitX=1;exitY=0;exitDx=0;exitDy=0;entryX=0.167;entryY=1.058;entryDx=0;entryDy=0;entryPerimeter=0;" parent="1" source="ZTxALWp2nxkmB7Zcn3Q2-2" target="ZTxALWp2nxkmB7Zcn3Q2-7" edge="1">
          <mxGeometry relative="1" as="geometry" />
        </mxCell>
        <mxCell id="ZTxALWp2nxkmB7Zcn3Q2-18" value="Response" style="edgeStyle=orthogonalEdgeStyle;rounded=0;orthogonalLoop=1;jettySize=auto;html=1;exitX=0;exitY=1;exitDx=0;exitDy=0;entryX=0.091;entryY=1.025;entryDx=0;entryDy=0;entryPerimeter=0;" parent="1" source="ZTxALWp2nxkmB7Zcn3Q2-2" target="ZTxALWp2nxkmB7Zcn3Q2-1" edge="1">
          <mxGeometry x="-0.5829" relative="1" as="geometry">
            <mxPoint as="offset" />
          </mxGeometry>
        </mxCell>
        <mxCell id="ZTxALWp2nxkmB7Zcn3Q2-19" value="Response" style="edgeStyle=orthogonalEdgeStyle;rounded=0;orthogonalLoop=1;jettySize=auto;html=1;exitX=0;exitY=1;exitDx=0;exitDy=0;" parent="1" edge="1">
          <mxGeometry x="-0.7638" relative="1" as="geometry">
            <mxPoint x="396.7157287525381" y="608.3042712474619" as="sourcePoint" />
            <mxPoint x="141" y="310" as="targetPoint" />
            <Array as="points">
              <mxPoint x="140" y="608" />
              <mxPoint x="140" y="310" />
            </Array>
            <mxPoint as="offset" />
          </mxGeometry>
        </mxCell>
        <mxCell id="ZTxALWp2nxkmB7Zcn3Q2-21" value="product manage" style="edgeStyle=orthogonalEdgeStyle;rounded=0;orthogonalLoop=1;jettySize=auto;html=1;exitX=1;exitY=0.5;exitDx=0;exitDy=0;entryX=0.018;entryY=0.293;entryDx=0;entryDy=0;entryPerimeter=0;" parent="1" source="ZTxALWp2nxkmB7Zcn3Q2-1" target="V6z1b4jEAUl-P3jl5kzp-8" edge="1">
          <mxGeometry relative="1" as="geometry" />
        </mxCell>
        <mxCell id="ZTxALWp2nxkmB7Zcn3Q2-22" value="Response" style="edgeStyle=orthogonalEdgeStyle;rounded=0;orthogonalLoop=1;jettySize=auto;html=1;exitX=0;exitY=1;exitDx=0;exitDy=0;entryX=1.003;entryY=0.82;entryDx=0;entryDy=0;entryPerimeter=0;" parent="1" source="V6z1b4jEAUl-P3jl5kzp-8" target="ZTxALWp2nxkmB7Zcn3Q2-1" edge="1">
          <mxGeometry relative="1" as="geometry" />
        </mxCell>
      </root>
    </mxGraphModel>
  </diagram>
  <diagram id="yeQsZYCf_fL6wJwPV2c7" name="ER">
    <mxGraphModel dx="1400" dy="743" grid="1" gridSize="10" guides="1" tooltips="1" connect="1" arrows="1" fold="1" page="1" pageScale="1" pageWidth="850" pageHeight="1100" math="0" shadow="0">
      <root>
        <mxCell id="0" />
        <mxCell id="1" parent="0" />
        <mxCell id="T7Q6gKHAXMOwdpgTmvkD-12" value="creates" style="edgeStyle=orthogonalEdgeStyle;rounded=0;orthogonalLoop=1;jettySize=auto;html=1;entryX=0;entryY=0.5;entryDx=0;entryDy=0;startArrow=ERmandOne;startFill=0;endArrow=ERzeroToMany;endFill=0;" parent="1" source="i4RAoxeFgXgQCkldFnQp-3" target="i4RAoxeFgXgQCkldFnQp-60" edge="1">
          <mxGeometry x="-0.2977" relative="1" as="geometry">
            <mxPoint x="370" y="917" as="targetPoint" />
            <mxPoint as="offset" />
          </mxGeometry>
        </mxCell>
        <mxCell id="B53bkZV9kgI16YPlFTzY-47" value="chooses" style="edgeStyle=orthogonalEdgeStyle;rounded=0;orthogonalLoop=1;jettySize=auto;html=1;exitX=0.5;exitY=0;exitDx=0;exitDy=0;entryX=0;entryY=0.5;entryDx=0;entryDy=0;startArrow=ERmandOne;startFill=0;endArrow=ERzeroToMany;endFill=0;targetPerimeterSpacing=0;" parent="1" source="i4RAoxeFgXgQCkldFnQp-3" target="B53bkZV9kgI16YPlFTzY-27" edge="1">
          <mxGeometry x="-0.4614" relative="1" as="geometry">
            <mxPoint as="offset" />
          </mxGeometry>
        </mxCell>
        <mxCell id="i4RAoxeFgXgQCkldFnQp-3" value="user" style="swimlane;html=1;fontStyle=1;align=center;verticalAlign=top;childLayout=stackLayout;horizontal=1;startSize=26;horizontalStack=0;resizeParent=1;resizeLast=0;collapsible=1;marginBottom=0;swimlaneFillColor=#ffffff;rounded=0;shadow=0;comic=0;labelBackgroundColor=none;strokeWidth=1;fillColor=none;fontFamily=Verdana;fontSize=12" parent="1" vertex="1">
          <mxGeometry x="345" y="565" width="160" height="160" as="geometry" />
        </mxCell>
        <mxCell id="i4RAoxeFgXgQCkldFnQp-4" value="user_id" style="text;html=1;strokeColor=none;fillColor=none;align=left;verticalAlign=top;spacingLeft=4;spacingRight=4;whiteSpace=wrap;overflow=hidden;rotatable=0;points=[[0,0.5],[1,0.5]];portConstraint=eastwest;" parent="i4RAoxeFgXgQCkldFnQp-3" vertex="1">
          <mxGeometry y="26" width="160" height="26" as="geometry" />
        </mxCell>
        <mxCell id="T7Q6gKHAXMOwdpgTmvkD-2" value="" style="line;html=1;strokeWidth=1;fillColor=none;align=left;verticalAlign=middle;spacingTop=-1;spacingLeft=3;spacingRight=3;rotatable=0;labelPosition=right;points=[];portConstraint=eastwest;" parent="i4RAoxeFgXgQCkldFnQp-3" vertex="1">
          <mxGeometry y="52" width="160" height="8" as="geometry" />
        </mxCell>
        <mxCell id="i4RAoxeFgXgQCkldFnQp-5" value="phone_number" style="text;html=1;strokeColor=none;fillColor=none;align=left;verticalAlign=top;spacingLeft=4;spacingRight=4;whiteSpace=wrap;overflow=hidden;rotatable=0;points=[[0,0.5],[1,0.5]];portConstraint=eastwest;" parent="i4RAoxeFgXgQCkldFnQp-3" vertex="1">
          <mxGeometry y="60" width="160" height="26" as="geometry" />
        </mxCell>
        <mxCell id="T7Q6gKHAXMOwdpgTmvkD-1" value="" style="line;html=1;strokeWidth=1;fillColor=none;align=left;verticalAlign=middle;spacingTop=-1;spacingLeft=3;spacingRight=3;rotatable=0;labelPosition=right;points=[];portConstraint=eastwest;" parent="i4RAoxeFgXgQCkldFnQp-3" vertex="1">
          <mxGeometry y="86" width="160" height="8" as="geometry" />
        </mxCell>
        <mxCell id="i4RAoxeFgXgQCkldFnQp-6" value="email" style="text;html=1;strokeColor=none;fillColor=none;align=left;verticalAlign=top;spacingLeft=4;spacingRight=4;whiteSpace=wrap;overflow=hidden;rotatable=0;points=[[0,0.5],[1,0.5]];portConstraint=eastwest;" parent="i4RAoxeFgXgQCkldFnQp-3" vertex="1">
          <mxGeometry y="94" width="160" height="26" as="geometry" />
        </mxCell>
        <mxCell id="i4RAoxeFgXgQCkldFnQp-9" value="" style="line;html=1;strokeWidth=1;fillColor=none;align=left;verticalAlign=middle;spacingTop=-1;spacingLeft=3;spacingRight=3;rotatable=0;labelPosition=right;points=[];portConstraint=eastwest;" parent="i4RAoxeFgXgQCkldFnQp-3" vertex="1">
          <mxGeometry y="120" width="160" height="8" as="geometry" />
        </mxCell>
        <mxCell id="i4RAoxeFgXgQCkldFnQp-7" value="password" style="text;html=1;strokeColor=none;fillColor=none;align=left;verticalAlign=top;spacingLeft=4;spacingRight=4;whiteSpace=wrap;overflow=hidden;rotatable=0;points=[[0,0.5],[1,0.5]];portConstraint=eastwest;" parent="i4RAoxeFgXgQCkldFnQp-3" vertex="1">
          <mxGeometry y="128" width="160" height="31.5" as="geometry" />
        </mxCell>
        <mxCell id="i4RAoxeFgXgQCkldFnQp-46" value="user_information" style="swimlane;html=1;fontStyle=1;align=center;verticalAlign=top;childLayout=stackLayout;horizontal=1;startSize=26;horizontalStack=0;resizeParent=1;resizeLast=0;collapsible=1;marginBottom=0;swimlaneFillColor=#ffffff;rounded=0;shadow=0;comic=0;labelBackgroundColor=none;strokeWidth=1;fillColor=none;fontFamily=Verdana;fontSize=12" parent="1" vertex="1">
          <mxGeometry x="630" y="565" width="160" height="260" as="geometry">
            <mxRectangle x="580" y="458.9999999999999" width="160" height="30" as="alternateBounds" />
          </mxGeometry>
        </mxCell>
        <mxCell id="i4RAoxeFgXgQCkldFnQp-47" value="user_id" style="text;html=1;strokeColor=none;fillColor=none;align=left;verticalAlign=top;spacingLeft=4;spacingRight=4;whiteSpace=wrap;overflow=hidden;rotatable=0;points=[[0,0.5],[1,0.5]];portConstraint=eastwest;" parent="i4RAoxeFgXgQCkldFnQp-46" vertex="1">
          <mxGeometry y="26" width="160" height="26" as="geometry" />
        </mxCell>
        <mxCell id="T7Q6gKHAXMOwdpgTmvkD-7" value="" style="line;html=1;strokeWidth=1;fillColor=none;align=left;verticalAlign=middle;spacingTop=-1;spacingLeft=3;spacingRight=3;rotatable=0;labelPosition=right;points=[];portConstraint=eastwest;" parent="i4RAoxeFgXgQCkldFnQp-46" vertex="1">
          <mxGeometry y="52" width="160" height="8" as="geometry" />
        </mxCell>
        <mxCell id="i4RAoxeFgXgQCkldFnQp-48" value="name" style="text;html=1;strokeColor=none;fillColor=none;align=left;verticalAlign=top;spacingLeft=4;spacingRight=4;whiteSpace=wrap;overflow=hidden;rotatable=0;points=[[0,0.5],[1,0.5]];portConstraint=eastwest;" parent="i4RAoxeFgXgQCkldFnQp-46" vertex="1">
          <mxGeometry y="60" width="160" height="26" as="geometry" />
        </mxCell>
        <mxCell id="T7Q6gKHAXMOwdpgTmvkD-6" value="" style="line;html=1;strokeWidth=1;fillColor=none;align=left;verticalAlign=middle;spacingTop=-1;spacingLeft=3;spacingRight=3;rotatable=0;labelPosition=right;points=[];portConstraint=eastwest;" parent="i4RAoxeFgXgQCkldFnQp-46" vertex="1">
          <mxGeometry y="86" width="160" height="8" as="geometry" />
        </mxCell>
        <mxCell id="i4RAoxeFgXgQCkldFnQp-49" value="phone_number" style="text;html=1;strokeColor=none;fillColor=none;align=left;verticalAlign=top;spacingLeft=4;spacingRight=4;whiteSpace=wrap;overflow=hidden;rotatable=0;points=[[0,0.5],[1,0.5]];portConstraint=eastwest;" parent="i4RAoxeFgXgQCkldFnQp-46" vertex="1">
          <mxGeometry y="94" width="160" height="26" as="geometry" />
        </mxCell>
        <mxCell id="T7Q6gKHAXMOwdpgTmvkD-5" value="" style="line;html=1;strokeWidth=1;fillColor=none;align=left;verticalAlign=middle;spacingTop=-1;spacingLeft=3;spacingRight=3;rotatable=0;labelPosition=right;points=[];portConstraint=eastwest;" parent="i4RAoxeFgXgQCkldFnQp-46" vertex="1">
          <mxGeometry y="120" width="160" height="8" as="geometry" />
        </mxCell>
        <mxCell id="i4RAoxeFgXgQCkldFnQp-50" value="email" style="text;html=1;strokeColor=none;fillColor=none;align=left;verticalAlign=top;spacingLeft=4;spacingRight=4;whiteSpace=wrap;overflow=hidden;rotatable=0;points=[[0,0.5],[1,0.5]];portConstraint=eastwest;" parent="i4RAoxeFgXgQCkldFnQp-46" vertex="1">
          <mxGeometry y="128" width="160" height="26" as="geometry" />
        </mxCell>
        <mxCell id="T7Q6gKHAXMOwdpgTmvkD-4" value="" style="line;html=1;strokeWidth=1;fillColor=none;align=left;verticalAlign=middle;spacingTop=-1;spacingLeft=3;spacingRight=3;rotatable=0;labelPosition=right;points=[];portConstraint=eastwest;" parent="i4RAoxeFgXgQCkldFnQp-46" vertex="1">
          <mxGeometry y="154" width="160" height="8" as="geometry" />
        </mxCell>
        <mxCell id="i4RAoxeFgXgQCkldFnQp-51" value="user_id(FK)" style="text;html=1;strokeColor=none;fillColor=none;align=left;verticalAlign=top;spacingLeft=4;spacingRight=4;whiteSpace=wrap;overflow=hidden;rotatable=0;points=[[0,0.5],[1,0.5]];portConstraint=eastwest;" parent="i4RAoxeFgXgQCkldFnQp-46" vertex="1">
          <mxGeometry y="162" width="160" height="26" as="geometry" />
        </mxCell>
        <mxCell id="T7Q6gKHAXMOwdpgTmvkD-3" value="" style="line;html=1;strokeWidth=1;fillColor=none;align=left;verticalAlign=middle;spacingTop=-1;spacingLeft=3;spacingRight=3;rotatable=0;labelPosition=right;points=[];portConstraint=eastwest;" parent="i4RAoxeFgXgQCkldFnQp-46" vertex="1">
          <mxGeometry y="188" width="160" height="8" as="geometry" />
        </mxCell>
        <mxCell id="i4RAoxeFgXgQCkldFnQp-52" value="restaurant_id(FK)" style="text;html=1;strokeColor=none;fillColor=none;align=left;verticalAlign=top;spacingLeft=4;spacingRight=4;whiteSpace=wrap;overflow=hidden;rotatable=0;points=[[0,0.5],[1,0.5]];portConstraint=eastwest;" parent="i4RAoxeFgXgQCkldFnQp-46" vertex="1">
          <mxGeometry y="196" width="160" height="26" as="geometry" />
        </mxCell>
        <mxCell id="i4RAoxeFgXgQCkldFnQp-53" value="" style="line;html=1;strokeWidth=1;fillColor=none;align=left;verticalAlign=middle;spacingTop=-1;spacingLeft=3;spacingRight=3;rotatable=0;labelPosition=right;points=[];portConstraint=eastwest;" parent="i4RAoxeFgXgQCkldFnQp-46" vertex="1">
          <mxGeometry y="222" width="160" height="8" as="geometry" />
        </mxCell>
        <mxCell id="i4RAoxeFgXgQCkldFnQp-54" value="message" style="text;html=1;strokeColor=none;fillColor=none;align=left;verticalAlign=top;spacingLeft=4;spacingRight=4;whiteSpace=wrap;overflow=hidden;rotatable=0;points=[[0,0.5],[1,0.5]];portConstraint=eastwest;" parent="i4RAoxeFgXgQCkldFnQp-46" vertex="1">
          <mxGeometry y="230" width="160" height="30" as="geometry" />
        </mxCell>
        <mxCell id="i4RAoxeFgXgQCkldFnQp-59" value="deliveryman_information" style="swimlane;html=1;fontStyle=1;align=center;verticalAlign=top;childLayout=stackLayout;horizontal=1;startSize=26;horizontalStack=0;resizeParent=1;resizeLast=0;collapsible=1;marginBottom=0;swimlaneFillColor=#ffffff;rounded=0;shadow=0;comic=0;labelBackgroundColor=none;strokeWidth=1;fillColor=none;fontFamily=Verdana;fontSize=12" parent="1" vertex="1">
          <mxGeometry x="520" y="870" width="210" height="300" as="geometry" />
        </mxCell>
        <mxCell id="i4RAoxeFgXgQCkldFnQp-60" value="deliveryman_id" style="text;html=1;strokeColor=none;fillColor=none;align=left;verticalAlign=top;spacingLeft=4;spacingRight=4;whiteSpace=wrap;overflow=hidden;rotatable=0;points=[[0,0.5],[1,0.5]];portConstraint=eastwest;" parent="i4RAoxeFgXgQCkldFnQp-59" vertex="1">
          <mxGeometry y="26" width="210" height="26" as="geometry" />
        </mxCell>
        <mxCell id="T7Q6gKHAXMOwdpgTmvkD-19" value="" style="line;html=1;strokeWidth=1;fillColor=none;align=left;verticalAlign=middle;spacingTop=-1;spacingLeft=3;spacingRight=3;rotatable=0;labelPosition=right;points=[];portConstraint=eastwest;" parent="i4RAoxeFgXgQCkldFnQp-59" vertex="1">
          <mxGeometry y="52" width="210" height="8" as="geometry" />
        </mxCell>
        <mxCell id="i4RAoxeFgXgQCkldFnQp-61" value="name" style="text;html=1;strokeColor=none;fillColor=none;align=left;verticalAlign=top;spacingLeft=4;spacingRight=4;whiteSpace=wrap;overflow=hidden;rotatable=0;points=[[0,0.5],[1,0.5]];portConstraint=eastwest;" parent="i4RAoxeFgXgQCkldFnQp-59" vertex="1">
          <mxGeometry y="60" width="210" height="26" as="geometry" />
        </mxCell>
        <mxCell id="T7Q6gKHAXMOwdpgTmvkD-18" value="" style="line;html=1;strokeWidth=1;fillColor=none;align=left;verticalAlign=middle;spacingTop=-1;spacingLeft=3;spacingRight=3;rotatable=0;labelPosition=right;points=[];portConstraint=eastwest;" parent="i4RAoxeFgXgQCkldFnQp-59" vertex="1">
          <mxGeometry y="86" width="210" height="8" as="geometry" />
        </mxCell>
        <mxCell id="i4RAoxeFgXgQCkldFnQp-62" value="phone_number" style="text;html=1;strokeColor=none;fillColor=none;align=left;verticalAlign=top;spacingLeft=4;spacingRight=4;whiteSpace=wrap;overflow=hidden;rotatable=0;points=[[0,0.5],[1,0.5]];portConstraint=eastwest;" parent="i4RAoxeFgXgQCkldFnQp-59" vertex="1">
          <mxGeometry y="94" width="210" height="26" as="geometry" />
        </mxCell>
        <mxCell id="T7Q6gKHAXMOwdpgTmvkD-16" value="" style="line;html=1;strokeWidth=1;fillColor=none;align=left;verticalAlign=middle;spacingTop=-1;spacingLeft=3;spacingRight=3;rotatable=0;labelPosition=right;points=[];portConstraint=eastwest;" parent="i4RAoxeFgXgQCkldFnQp-59" vertex="1">
          <mxGeometry y="120" width="210" height="8" as="geometry" />
        </mxCell>
        <mxCell id="i4RAoxeFgXgQCkldFnQp-63" value="email" style="text;html=1;strokeColor=none;fillColor=none;align=left;verticalAlign=top;spacingLeft=4;spacingRight=4;whiteSpace=wrap;overflow=hidden;rotatable=0;points=[[0,0.5],[1,0.5]];portConstraint=eastwest;" parent="i4RAoxeFgXgQCkldFnQp-59" vertex="1">
          <mxGeometry y="128" width="210" height="26" as="geometry" />
        </mxCell>
        <mxCell id="T7Q6gKHAXMOwdpgTmvkD-17" value="" style="line;html=1;strokeWidth=1;fillColor=none;align=left;verticalAlign=middle;spacingTop=-1;spacingLeft=3;spacingRight=3;rotatable=0;labelPosition=right;points=[];portConstraint=eastwest;" parent="i4RAoxeFgXgQCkldFnQp-59" vertex="1">
          <mxGeometry y="154" width="210" height="8" as="geometry" />
        </mxCell>
        <mxCell id="i4RAoxeFgXgQCkldFnQp-64" value="user_id(FK)" style="text;html=1;strokeColor=none;fillColor=none;align=left;verticalAlign=top;spacingLeft=4;spacingRight=4;whiteSpace=wrap;overflow=hidden;rotatable=0;points=[[0,0.5],[1,0.5]];portConstraint=eastwest;" parent="i4RAoxeFgXgQCkldFnQp-59" vertex="1">
          <mxGeometry y="162" width="210" height="26" as="geometry" />
        </mxCell>
        <mxCell id="T7Q6gKHAXMOwdpgTmvkD-15" value="" style="line;html=1;strokeWidth=1;fillColor=none;align=left;verticalAlign=middle;spacingTop=-1;spacingLeft=3;spacingRight=3;rotatable=0;labelPosition=right;points=[];portConstraint=eastwest;" parent="i4RAoxeFgXgQCkldFnQp-59" vertex="1">
          <mxGeometry y="188" width="210" height="8" as="geometry" />
        </mxCell>
        <mxCell id="i4RAoxeFgXgQCkldFnQp-65" value="restaurant_id(FK)" style="text;html=1;strokeColor=none;fillColor=none;align=left;verticalAlign=top;spacingLeft=4;spacingRight=4;whiteSpace=wrap;overflow=hidden;rotatable=0;points=[[0,0.5],[1,0.5]];portConstraint=eastwest;" parent="i4RAoxeFgXgQCkldFnQp-59" vertex="1">
          <mxGeometry y="196" width="210" height="26" as="geometry" />
        </mxCell>
        <mxCell id="T7Q6gKHAXMOwdpgTmvkD-14" value="" style="line;html=1;strokeWidth=1;fillColor=none;align=left;verticalAlign=middle;spacingTop=-1;spacingLeft=3;spacingRight=3;rotatable=0;labelPosition=right;points=[];portConstraint=eastwest;" parent="i4RAoxeFgXgQCkldFnQp-59" vertex="1">
          <mxGeometry y="222" width="210" height="8" as="geometry" />
        </mxCell>
        <mxCell id="i4RAoxeFgXgQCkldFnQp-66" value="message" style="text;html=1;strokeColor=none;fillColor=none;align=left;verticalAlign=top;spacingLeft=4;spacingRight=4;whiteSpace=wrap;overflow=hidden;rotatable=0;points=[[0,0.5],[1,0.5]];portConstraint=eastwest;" parent="i4RAoxeFgXgQCkldFnQp-59" vertex="1">
          <mxGeometry y="230" width="210" height="26" as="geometry" />
        </mxCell>
        <mxCell id="i4RAoxeFgXgQCkldFnQp-67" value="" style="line;html=1;strokeWidth=1;fillColor=none;align=left;verticalAlign=middle;spacingTop=-1;spacingLeft=3;spacingRight=3;rotatable=0;labelPosition=right;points=[];portConstraint=eastwest;" parent="i4RAoxeFgXgQCkldFnQp-59" vertex="1">
          <mxGeometry y="256" width="210" height="8" as="geometry" />
        </mxCell>
        <mxCell id="i4RAoxeFgXgQCkldFnQp-69" value="+ method(type): type" style="text;html=1;strokeColor=none;fillColor=none;align=left;verticalAlign=top;spacingLeft=4;spacingRight=4;whiteSpace=wrap;overflow=hidden;rotatable=0;points=[[0,0.5],[1,0.5]];portConstraint=eastwest;" parent="i4RAoxeFgXgQCkldFnQp-59" vertex="1">
          <mxGeometry y="264" width="210" height="36" as="geometry" />
        </mxCell>
        <mxCell id="T7Q6gKHAXMOwdpgTmvkD-20" value="restaurant" style="swimlane;html=1;fontStyle=1;align=center;verticalAlign=top;childLayout=stackLayout;horizontal=1;startSize=26;horizontalStack=0;resizeParent=1;resizeLast=0;collapsible=1;marginBottom=0;swimlaneFillColor=#ffffff;rounded=0;shadow=0;comic=0;labelBackgroundColor=none;strokeWidth=1;fillColor=none;fontFamily=Verdana;fontSize=12" parent="1" vertex="1">
          <mxGeometry x="1100" y="595" width="155" height="230" as="geometry" />
        </mxCell>
        <mxCell id="T7Q6gKHAXMOwdpgTmvkD-21" value="restaurant_id" style="text;html=1;strokeColor=none;fillColor=none;align=left;verticalAlign=top;spacingLeft=4;spacingRight=4;whiteSpace=wrap;overflow=hidden;rotatable=0;points=[[0,0.5],[1,0.5]];portConstraint=eastwest;" parent="T7Q6gKHAXMOwdpgTmvkD-20" vertex="1">
          <mxGeometry y="26" width="155" height="26" as="geometry" />
        </mxCell>
        <mxCell id="T7Q6gKHAXMOwdpgTmvkD-22" value="" style="line;html=1;strokeWidth=1;fillColor=none;align=left;verticalAlign=middle;spacingTop=-1;spacingLeft=3;spacingRight=3;rotatable=0;labelPosition=right;points=[];portConstraint=eastwest;" parent="T7Q6gKHAXMOwdpgTmvkD-20" vertex="1">
          <mxGeometry y="52" width="155" height="8" as="geometry" />
        </mxCell>
        <mxCell id="T7Q6gKHAXMOwdpgTmvkD-23" value="email" style="text;html=1;strokeColor=none;fillColor=none;align=left;verticalAlign=top;spacingLeft=4;spacingRight=4;whiteSpace=wrap;overflow=hidden;rotatable=0;points=[[0,0.5],[1,0.5]];portConstraint=eastwest;" parent="T7Q6gKHAXMOwdpgTmvkD-20" vertex="1">
          <mxGeometry y="60" width="155" height="26" as="geometry" />
        </mxCell>
        <mxCell id="T7Q6gKHAXMOwdpgTmvkD-24" value="" style="line;html=1;strokeWidth=1;fillColor=none;align=left;verticalAlign=middle;spacingTop=-1;spacingLeft=3;spacingRight=3;rotatable=0;labelPosition=right;points=[];portConstraint=eastwest;" parent="T7Q6gKHAXMOwdpgTmvkD-20" vertex="1">
          <mxGeometry y="86" width="155" height="8" as="geometry" />
        </mxCell>
        <mxCell id="T7Q6gKHAXMOwdpgTmvkD-25" value="password" style="text;html=1;strokeColor=none;fillColor=none;align=left;verticalAlign=top;spacingLeft=4;spacingRight=4;whiteSpace=wrap;overflow=hidden;rotatable=0;points=[[0,0.5],[1,0.5]];portConstraint=eastwest;" parent="T7Q6gKHAXMOwdpgTmvkD-20" vertex="1">
          <mxGeometry y="94" width="155" height="26" as="geometry" />
        </mxCell>
        <mxCell id="T7Q6gKHAXMOwdpgTmvkD-26" value="" style="line;html=1;strokeWidth=1;fillColor=none;align=left;verticalAlign=middle;spacingTop=-1;spacingLeft=3;spacingRight=3;rotatable=0;labelPosition=right;points=[];portConstraint=eastwest;" parent="T7Q6gKHAXMOwdpgTmvkD-20" vertex="1">
          <mxGeometry y="120" width="155" height="8" as="geometry" />
        </mxCell>
        <mxCell id="T7Q6gKHAXMOwdpgTmvkD-27" value="name" style="text;html=1;strokeColor=none;fillColor=none;align=left;verticalAlign=top;spacingLeft=4;spacingRight=4;whiteSpace=wrap;overflow=hidden;rotatable=0;points=[[0,0.5],[1,0.5]];portConstraint=eastwest;" parent="T7Q6gKHAXMOwdpgTmvkD-20" vertex="1">
          <mxGeometry y="128" width="155" height="26" as="geometry" />
        </mxCell>
        <mxCell id="T7Q6gKHAXMOwdpgTmvkD-28" value="" style="line;html=1;strokeWidth=1;fillColor=none;align=left;verticalAlign=middle;spacingTop=-1;spacingLeft=3;spacingRight=3;rotatable=0;labelPosition=right;points=[];portConstraint=eastwest;" parent="T7Q6gKHAXMOwdpgTmvkD-20" vertex="1">
          <mxGeometry y="154" width="155" height="8" as="geometry" />
        </mxCell>
        <mxCell id="T7Q6gKHAXMOwdpgTmvkD-29" value="location" style="text;html=1;strokeColor=none;fillColor=none;align=left;verticalAlign=top;spacingLeft=4;spacingRight=4;whiteSpace=wrap;overflow=hidden;rotatable=0;points=[[0,0.5],[1,0.5]];portConstraint=eastwest;" parent="T7Q6gKHAXMOwdpgTmvkD-20" vertex="1">
          <mxGeometry y="162" width="155" height="26" as="geometry" />
        </mxCell>
        <mxCell id="T7Q6gKHAXMOwdpgTmvkD-30" value="" style="line;html=1;strokeWidth=1;fillColor=none;align=left;verticalAlign=middle;spacingTop=-1;spacingLeft=3;spacingRight=3;rotatable=0;labelPosition=right;points=[];portConstraint=eastwest;" parent="T7Q6gKHAXMOwdpgTmvkD-20" vertex="1">
          <mxGeometry y="188" width="155" height="8" as="geometry" />
        </mxCell>
        <mxCell id="T7Q6gKHAXMOwdpgTmvkD-31" value="phone_number" style="text;html=1;strokeColor=none;fillColor=none;align=left;verticalAlign=top;spacingLeft=4;spacingRight=4;whiteSpace=wrap;overflow=hidden;rotatable=0;points=[[0,0.5],[1,0.5]];portConstraint=eastwest;" parent="T7Q6gKHAXMOwdpgTmvkD-20" vertex="1">
          <mxGeometry y="196" width="155" height="26" as="geometry" />
        </mxCell>
        <mxCell id="T7Q6gKHAXMOwdpgTmvkD-36" value="admin" style="swimlane;html=1;fontStyle=1;align=center;verticalAlign=top;childLayout=stackLayout;horizontal=1;startSize=26;horizontalStack=0;resizeParent=1;resizeLast=0;collapsible=1;marginBottom=0;swimlaneFillColor=#ffffff;rounded=0;shadow=0;comic=0;labelBackgroundColor=none;strokeWidth=1;fillColor=none;fontFamily=Verdana;fontSize=12" parent="1" vertex="1">
          <mxGeometry x="1320" y="820" width="155" height="130" as="geometry" />
        </mxCell>
        <mxCell id="T7Q6gKHAXMOwdpgTmvkD-37" value="admin_id" style="text;html=1;strokeColor=none;fillColor=none;align=left;verticalAlign=top;spacingLeft=4;spacingRight=4;whiteSpace=wrap;overflow=hidden;rotatable=0;points=[[0,0.5],[1,0.5]];portConstraint=eastwest;" parent="T7Q6gKHAXMOwdpgTmvkD-36" vertex="1">
          <mxGeometry y="26" width="155" height="26" as="geometry" />
        </mxCell>
        <mxCell id="T7Q6gKHAXMOwdpgTmvkD-38" value="" style="line;html=1;strokeWidth=1;fillColor=none;align=left;verticalAlign=middle;spacingTop=-1;spacingLeft=3;spacingRight=3;rotatable=0;labelPosition=right;points=[];portConstraint=eastwest;" parent="T7Q6gKHAXMOwdpgTmvkD-36" vertex="1">
          <mxGeometry y="52" width="155" height="8" as="geometry" />
        </mxCell>
        <mxCell id="T7Q6gKHAXMOwdpgTmvkD-39" value="email" style="text;html=1;strokeColor=none;fillColor=none;align=left;verticalAlign=top;spacingLeft=4;spacingRight=4;whiteSpace=wrap;overflow=hidden;rotatable=0;points=[[0,0.5],[1,0.5]];portConstraint=eastwest;" parent="T7Q6gKHAXMOwdpgTmvkD-36" vertex="1">
          <mxGeometry y="60" width="155" height="26" as="geometry" />
        </mxCell>
        <mxCell id="T7Q6gKHAXMOwdpgTmvkD-40" value="" style="line;html=1;strokeWidth=1;fillColor=none;align=left;verticalAlign=middle;spacingTop=-1;spacingLeft=3;spacingRight=3;rotatable=0;labelPosition=right;points=[];portConstraint=eastwest;" parent="T7Q6gKHAXMOwdpgTmvkD-36" vertex="1">
          <mxGeometry y="86" width="155" height="8" as="geometry" />
        </mxCell>
        <mxCell id="T7Q6gKHAXMOwdpgTmvkD-41" value="password" style="text;html=1;strokeColor=none;fillColor=none;align=left;verticalAlign=top;spacingLeft=4;spacingRight=4;whiteSpace=wrap;overflow=hidden;rotatable=0;points=[[0,0.5],[1,0.5]];portConstraint=eastwest;" parent="T7Q6gKHAXMOwdpgTmvkD-36" vertex="1">
          <mxGeometry y="94" width="155" height="36" as="geometry" />
        </mxCell>
        <mxCell id="T7Q6gKHAXMOwdpgTmvkD-48" value="order" style="swimlane;html=1;fontStyle=1;align=center;verticalAlign=top;childLayout=stackLayout;horizontal=1;startSize=26;horizontalStack=0;resizeParent=1;resizeLast=0;collapsible=1;marginBottom=0;swimlaneFillColor=#ffffff;rounded=0;shadow=0;comic=0;labelBackgroundColor=none;strokeWidth=1;fillColor=none;fontFamily=Verdana;fontSize=12" parent="1" vertex="1">
          <mxGeometry x="920" y="270" width="155" height="230" as="geometry" />
        </mxCell>
        <mxCell id="T7Q6gKHAXMOwdpgTmvkD-49" value="user_id" style="text;html=1;strokeColor=none;fillColor=none;align=left;verticalAlign=top;spacingLeft=4;spacingRight=4;whiteSpace=wrap;overflow=hidden;rotatable=0;points=[[0,0.5],[1,0.5]];portConstraint=eastwest;" parent="T7Q6gKHAXMOwdpgTmvkD-48" vertex="1">
          <mxGeometry y="26" width="155" height="26" as="geometry" />
        </mxCell>
        <mxCell id="T7Q6gKHAXMOwdpgTmvkD-50" value="" style="line;html=1;strokeWidth=1;fillColor=none;align=left;verticalAlign=middle;spacingTop=-1;spacingLeft=3;spacingRight=3;rotatable=0;labelPosition=right;points=[];portConstraint=eastwest;" parent="T7Q6gKHAXMOwdpgTmvkD-48" vertex="1">
          <mxGeometry y="52" width="155" height="8" as="geometry" />
        </mxCell>
        <mxCell id="T7Q6gKHAXMOwdpgTmvkD-51" value="order_id" style="text;html=1;strokeColor=none;fillColor=none;align=left;verticalAlign=top;spacingLeft=4;spacingRight=4;whiteSpace=wrap;overflow=hidden;rotatable=0;points=[[0,0.5],[1,0.5]];portConstraint=eastwest;" parent="T7Q6gKHAXMOwdpgTmvkD-48" vertex="1">
          <mxGeometry y="60" width="155" height="26" as="geometry" />
        </mxCell>
        <mxCell id="T7Q6gKHAXMOwdpgTmvkD-52" value="" style="line;html=1;strokeWidth=1;fillColor=none;align=left;verticalAlign=middle;spacingTop=-1;spacingLeft=3;spacingRight=3;rotatable=0;labelPosition=right;points=[];portConstraint=eastwest;" parent="T7Q6gKHAXMOwdpgTmvkD-48" vertex="1">
          <mxGeometry y="86" width="155" height="8" as="geometry" />
        </mxCell>
        <mxCell id="T7Q6gKHAXMOwdpgTmvkD-53" value="menuitem_id" style="text;html=1;strokeColor=none;fillColor=none;align=left;verticalAlign=top;spacingLeft=4;spacingRight=4;whiteSpace=wrap;overflow=hidden;rotatable=0;points=[[0,0.5],[1,0.5]];portConstraint=eastwest;" parent="T7Q6gKHAXMOwdpgTmvkD-48" vertex="1">
          <mxGeometry y="94" width="155" height="26" as="geometry" />
        </mxCell>
        <mxCell id="T7Q6gKHAXMOwdpgTmvkD-54" value="" style="line;html=1;strokeWidth=1;fillColor=none;align=left;verticalAlign=middle;spacingTop=-1;spacingLeft=3;spacingRight=3;rotatable=0;labelPosition=right;points=[];portConstraint=eastwest;" parent="T7Q6gKHAXMOwdpgTmvkD-48" vertex="1">
          <mxGeometry y="120" width="155" height="8" as="geometry" />
        </mxCell>
        <mxCell id="T7Q6gKHAXMOwdpgTmvkD-55" value="order_time" style="text;html=1;strokeColor=none;fillColor=none;align=left;verticalAlign=top;spacingLeft=4;spacingRight=4;whiteSpace=wrap;overflow=hidden;rotatable=0;points=[[0,0.5],[1,0.5]];portConstraint=eastwest;" parent="T7Q6gKHAXMOwdpgTmvkD-48" vertex="1">
          <mxGeometry y="128" width="155" height="26" as="geometry" />
        </mxCell>
        <mxCell id="T7Q6gKHAXMOwdpgTmvkD-56" value="" style="line;html=1;strokeWidth=1;fillColor=none;align=left;verticalAlign=middle;spacingTop=-1;spacingLeft=3;spacingRight=3;rotatable=0;labelPosition=right;points=[];portConstraint=eastwest;" parent="T7Q6gKHAXMOwdpgTmvkD-48" vertex="1">
          <mxGeometry y="154" width="155" height="8" as="geometry" />
        </mxCell>
        <mxCell id="T7Q6gKHAXMOwdpgTmvkD-57" value="quantity" style="text;html=1;strokeColor=none;fillColor=none;align=left;verticalAlign=top;spacingLeft=4;spacingRight=4;whiteSpace=wrap;overflow=hidden;rotatable=0;points=[[0,0.5],[1,0.5]];portConstraint=eastwest;" parent="T7Q6gKHAXMOwdpgTmvkD-48" vertex="1">
          <mxGeometry y="162" width="155" height="26" as="geometry" />
        </mxCell>
        <mxCell id="T7Q6gKHAXMOwdpgTmvkD-58" value="" style="line;html=1;strokeWidth=1;fillColor=none;align=left;verticalAlign=middle;spacingTop=-1;spacingLeft=3;spacingRight=3;rotatable=0;labelPosition=right;points=[];portConstraint=eastwest;" parent="T7Q6gKHAXMOwdpgTmvkD-48" vertex="1">
          <mxGeometry y="188" width="155" height="8" as="geometry" />
        </mxCell>
        <mxCell id="T7Q6gKHAXMOwdpgTmvkD-59" value="Is_paid" style="text;html=1;strokeColor=none;fillColor=none;align=left;verticalAlign=top;spacingLeft=4;spacingRight=4;whiteSpace=wrap;overflow=hidden;rotatable=0;points=[[0,0.5],[1,0.5]];portConstraint=eastwest;" parent="T7Q6gKHAXMOwdpgTmvkD-48" vertex="1">
          <mxGeometry y="196" width="155" height="26" as="geometry" />
        </mxCell>
        <mxCell id="B53bkZV9kgI16YPlFTzY-1" value="order_status" style="swimlane;html=1;fontStyle=1;align=center;verticalAlign=top;childLayout=stackLayout;horizontal=1;startSize=26;horizontalStack=0;resizeParent=1;resizeLast=0;collapsible=1;marginBottom=0;swimlaneFillColor=#ffffff;rounded=0;shadow=0;comic=0;labelBackgroundColor=none;strokeWidth=1;fillColor=none;fontFamily=Verdana;fontSize=12" parent="1" vertex="1">
          <mxGeometry x="850" y="870" width="155" height="300" as="geometry" />
        </mxCell>
        <mxCell id="B53bkZV9kgI16YPlFTzY-2" value="draft" style="text;html=1;strokeColor=none;fillColor=none;align=left;verticalAlign=top;spacingLeft=4;spacingRight=4;whiteSpace=wrap;overflow=hidden;rotatable=0;points=[[0,0.5],[1,0.5]];portConstraint=eastwest;" parent="B53bkZV9kgI16YPlFTzY-1" vertex="1">
          <mxGeometry y="26" width="155" height="26" as="geometry" />
        </mxCell>
        <mxCell id="B53bkZV9kgI16YPlFTzY-3" value="" style="line;html=1;strokeWidth=1;fillColor=none;align=left;verticalAlign=middle;spacingTop=-1;spacingLeft=3;spacingRight=3;rotatable=0;labelPosition=right;points=[];portConstraint=eastwest;" parent="B53bkZV9kgI16YPlFTzY-1" vertex="1">
          <mxGeometry y="52" width="155" height="8" as="geometry" />
        </mxCell>
        <mxCell id="B53bkZV9kgI16YPlFTzY-4" value="ordered" style="text;html=1;strokeColor=none;fillColor=none;align=left;verticalAlign=top;spacingLeft=4;spacingRight=4;whiteSpace=wrap;overflow=hidden;rotatable=0;points=[[0,0.5],[1,0.5]];portConstraint=eastwest;" parent="B53bkZV9kgI16YPlFTzY-1" vertex="1">
          <mxGeometry y="60" width="155" height="26" as="geometry" />
        </mxCell>
        <mxCell id="B53bkZV9kgI16YPlFTzY-5" value="" style="line;html=1;strokeWidth=1;fillColor=none;align=left;verticalAlign=middle;spacingTop=-1;spacingLeft=3;spacingRight=3;rotatable=0;labelPosition=right;points=[];portConstraint=eastwest;" parent="B53bkZV9kgI16YPlFTzY-1" vertex="1">
          <mxGeometry y="86" width="155" height="8" as="geometry" />
        </mxCell>
        <mxCell id="B53bkZV9kgI16YPlFTzY-6" value="preparing" style="text;html=1;strokeColor=none;fillColor=none;align=left;verticalAlign=top;spacingLeft=4;spacingRight=4;whiteSpace=wrap;overflow=hidden;rotatable=0;points=[[0,0.5],[1,0.5]];portConstraint=eastwest;" parent="B53bkZV9kgI16YPlFTzY-1" vertex="1">
          <mxGeometry y="94" width="155" height="26" as="geometry" />
        </mxCell>
        <mxCell id="B53bkZV9kgI16YPlFTzY-7" value="" style="line;html=1;strokeWidth=1;fillColor=none;align=left;verticalAlign=middle;spacingTop=-1;spacingLeft=3;spacingRight=3;rotatable=0;labelPosition=right;points=[];portConstraint=eastwest;" parent="B53bkZV9kgI16YPlFTzY-1" vertex="1">
          <mxGeometry y="120" width="155" height="8" as="geometry" />
        </mxCell>
        <mxCell id="B53bkZV9kgI16YPlFTzY-8" value="checking" style="text;html=1;strokeColor=none;fillColor=none;align=left;verticalAlign=top;spacingLeft=4;spacingRight=4;whiteSpace=wrap;overflow=hidden;rotatable=0;points=[[0,0.5],[1,0.5]];portConstraint=eastwest;" parent="B53bkZV9kgI16YPlFTzY-1" vertex="1">
          <mxGeometry y="128" width="155" height="26" as="geometry" />
        </mxCell>
        <mxCell id="B53bkZV9kgI16YPlFTzY-9" value="" style="line;html=1;strokeWidth=1;fillColor=none;align=left;verticalAlign=middle;spacingTop=-1;spacingLeft=3;spacingRight=3;rotatable=0;labelPosition=right;points=[];portConstraint=eastwest;" parent="B53bkZV9kgI16YPlFTzY-1" vertex="1">
          <mxGeometry y="154" width="155" height="8" as="geometry" />
        </mxCell>
        <mxCell id="B53bkZV9kgI16YPlFTzY-10" value="prepared" style="text;html=1;strokeColor=none;fillColor=none;align=left;verticalAlign=top;spacingLeft=4;spacingRight=4;whiteSpace=wrap;overflow=hidden;rotatable=0;points=[[0,0.5],[1,0.5]];portConstraint=eastwest;" parent="B53bkZV9kgI16YPlFTzY-1" vertex="1">
          <mxGeometry y="162" width="155" height="26" as="geometry" />
        </mxCell>
        <mxCell id="B53bkZV9kgI16YPlFTzY-11" value="" style="line;html=1;strokeWidth=1;fillColor=none;align=left;verticalAlign=middle;spacingTop=-1;spacingLeft=3;spacingRight=3;rotatable=0;labelPosition=right;points=[];portConstraint=eastwest;" parent="B53bkZV9kgI16YPlFTzY-1" vertex="1">
          <mxGeometry y="188" width="155" height="8" as="geometry" />
        </mxCell>
        <mxCell id="B53bkZV9kgI16YPlFTzY-12" value="delivering" style="text;html=1;strokeColor=none;fillColor=none;align=left;verticalAlign=top;spacingLeft=4;spacingRight=4;whiteSpace=wrap;overflow=hidden;rotatable=0;points=[[0,0.5],[1,0.5]];portConstraint=eastwest;" parent="B53bkZV9kgI16YPlFTzY-1" vertex="1">
          <mxGeometry y="196" width="155" height="26" as="geometry" />
        </mxCell>
        <mxCell id="B53bkZV9kgI16YPlFTzY-18" value="" style="line;html=1;strokeWidth=1;fillColor=none;align=left;verticalAlign=middle;spacingTop=-1;spacingLeft=3;spacingRight=3;rotatable=0;labelPosition=right;points=[];portConstraint=eastwest;" parent="B53bkZV9kgI16YPlFTzY-1" vertex="1">
          <mxGeometry y="222" width="155" height="8" as="geometry" />
        </mxCell>
        <mxCell id="B53bkZV9kgI16YPlFTzY-22" value="takenover" style="text;html=1;strokeColor=none;fillColor=none;align=left;verticalAlign=top;spacingLeft=4;spacingRight=4;whiteSpace=wrap;overflow=hidden;rotatable=0;points=[[0,0.5],[1,0.5]];portConstraint=eastwest;" parent="B53bkZV9kgI16YPlFTzY-1" vertex="1">
          <mxGeometry y="230" width="155" height="26" as="geometry" />
        </mxCell>
        <mxCell id="B53bkZV9kgI16YPlFTzY-21" value="" style="line;html=1;strokeWidth=1;fillColor=none;align=left;verticalAlign=middle;spacingTop=-1;spacingLeft=3;spacingRight=3;rotatable=0;labelPosition=right;points=[];portConstraint=eastwest;" parent="B53bkZV9kgI16YPlFTzY-1" vertex="1">
          <mxGeometry y="256" width="155" height="8" as="geometry" />
        </mxCell>
        <mxCell id="B53bkZV9kgI16YPlFTzY-23" value="cancelled" style="text;html=1;strokeColor=none;fillColor=none;align=left;verticalAlign=top;spacingLeft=4;spacingRight=4;whiteSpace=wrap;overflow=hidden;rotatable=0;points=[[0,0.5],[1,0.5]];portConstraint=eastwest;" parent="B53bkZV9kgI16YPlFTzY-1" vertex="1">
          <mxGeometry y="264" width="155" height="36" as="geometry" />
        </mxCell>
        <mxCell id="B53bkZV9kgI16YPlFTzY-24" value="menu_item" style="swimlane;html=1;fontStyle=1;align=center;verticalAlign=top;childLayout=stackLayout;horizontal=1;startSize=26;horizontalStack=0;resizeParent=1;resizeLast=0;collapsible=1;marginBottom=0;swimlaneFillColor=#ffffff;rounded=0;shadow=0;comic=0;labelBackgroundColor=none;strokeWidth=1;fillColor=none;fontFamily=Verdana;fontSize=12" parent="1" vertex="1">
          <mxGeometry x="630" y="270" width="150" height="230" as="geometry">
            <mxRectangle x="580" y="458.9999999999999" width="160" height="30" as="alternateBounds" />
          </mxGeometry>
        </mxCell>
        <mxCell id="B53bkZV9kgI16YPlFTzY-25" value="user_id" style="text;html=1;strokeColor=none;fillColor=none;align=left;verticalAlign=top;spacingLeft=4;spacingRight=4;whiteSpace=wrap;overflow=hidden;rotatable=0;points=[[0,0.5],[1,0.5]];portConstraint=eastwest;" parent="B53bkZV9kgI16YPlFTzY-24" vertex="1">
          <mxGeometry y="26" width="150" height="26" as="geometry" />
        </mxCell>
        <mxCell id="B53bkZV9kgI16YPlFTzY-26" value="" style="line;html=1;strokeWidth=1;fillColor=none;align=left;verticalAlign=middle;spacingTop=-1;spacingLeft=3;spacingRight=3;rotatable=0;labelPosition=right;points=[];portConstraint=eastwest;" parent="B53bkZV9kgI16YPlFTzY-24" vertex="1">
          <mxGeometry y="52" width="150" height="8" as="geometry" />
        </mxCell>
        <mxCell id="B53bkZV9kgI16YPlFTzY-27" value="name" style="text;html=1;strokeColor=none;fillColor=none;align=left;verticalAlign=top;spacingLeft=4;spacingRight=4;whiteSpace=wrap;overflow=hidden;rotatable=0;points=[[0,0.5],[1,0.5]];portConstraint=eastwest;" parent="B53bkZV9kgI16YPlFTzY-24" vertex="1">
          <mxGeometry y="60" width="150" height="26" as="geometry" />
        </mxCell>
        <mxCell id="B53bkZV9kgI16YPlFTzY-28" value="" style="line;html=1;strokeWidth=1;fillColor=none;align=left;verticalAlign=middle;spacingTop=-1;spacingLeft=3;spacingRight=3;rotatable=0;labelPosition=right;points=[];portConstraint=eastwest;" parent="B53bkZV9kgI16YPlFTzY-24" vertex="1">
          <mxGeometry y="86" width="150" height="8" as="geometry" />
        </mxCell>
        <mxCell id="B53bkZV9kgI16YPlFTzY-29" value="description&amp;nbsp;" style="text;html=1;strokeColor=none;fillColor=none;align=left;verticalAlign=top;spacingLeft=4;spacingRight=4;whiteSpace=wrap;overflow=hidden;rotatable=0;points=[[0,0.5],[1,0.5]];portConstraint=eastwest;" parent="B53bkZV9kgI16YPlFTzY-24" vertex="1">
          <mxGeometry y="94" width="150" height="26" as="geometry" />
        </mxCell>
        <mxCell id="B53bkZV9kgI16YPlFTzY-30" value="" style="line;html=1;strokeWidth=1;fillColor=none;align=left;verticalAlign=middle;spacingTop=-1;spacingLeft=3;spacingRight=3;rotatable=0;labelPosition=right;points=[];portConstraint=eastwest;" parent="B53bkZV9kgI16YPlFTzY-24" vertex="1">
          <mxGeometry y="120" width="150" height="8" as="geometry" />
        </mxCell>
        <mxCell id="B53bkZV9kgI16YPlFTzY-31" value="price" style="text;html=1;strokeColor=none;fillColor=none;align=left;verticalAlign=top;spacingLeft=4;spacingRight=4;whiteSpace=wrap;overflow=hidden;rotatable=0;points=[[0,0.5],[1,0.5]];portConstraint=eastwest;" parent="B53bkZV9kgI16YPlFTzY-24" vertex="1">
          <mxGeometry y="128" width="150" height="26" as="geometry" />
        </mxCell>
        <mxCell id="B53bkZV9kgI16YPlFTzY-32" value="" style="line;html=1;strokeWidth=1;fillColor=none;align=left;verticalAlign=middle;spacingTop=-1;spacingLeft=3;spacingRight=3;rotatable=0;labelPosition=right;points=[];portConstraint=eastwest;" parent="B53bkZV9kgI16YPlFTzY-24" vertex="1">
          <mxGeometry y="154" width="150" height="8" as="geometry" />
        </mxCell>
        <mxCell id="B53bkZV9kgI16YPlFTzY-33" value="image" style="text;html=1;strokeColor=none;fillColor=none;align=left;verticalAlign=top;spacingLeft=4;spacingRight=4;whiteSpace=wrap;overflow=hidden;rotatable=0;points=[[0,0.5],[1,0.5]];portConstraint=eastwest;" parent="B53bkZV9kgI16YPlFTzY-24" vertex="1">
          <mxGeometry y="162" width="150" height="26" as="geometry" />
        </mxCell>
        <mxCell id="B53bkZV9kgI16YPlFTzY-34" value="" style="line;html=1;strokeWidth=1;fillColor=none;align=left;verticalAlign=middle;spacingTop=-1;spacingLeft=3;spacingRight=3;rotatable=0;labelPosition=right;points=[];portConstraint=eastwest;" parent="B53bkZV9kgI16YPlFTzY-24" vertex="1">
          <mxGeometry y="188" width="150" height="8" as="geometry" />
        </mxCell>
        <mxCell id="B53bkZV9kgI16YPlFTzY-35" value="order_index" style="text;html=1;strokeColor=none;fillColor=none;align=left;verticalAlign=top;spacingLeft=4;spacingRight=4;whiteSpace=wrap;overflow=hidden;rotatable=0;points=[[0,0.5],[1,0.5]];portConstraint=eastwest;" parent="B53bkZV9kgI16YPlFTzY-24" vertex="1">
          <mxGeometry y="196" width="150" height="26" as="geometry" />
        </mxCell>
        <mxCell id="B53bkZV9kgI16YPlFTzY-38" value="uploads" style="edgeStyle=orthogonalEdgeStyle;rounded=0;orthogonalLoop=1;jettySize=auto;html=1;exitX=1;exitY=0.5;exitDx=0;exitDy=0;entryX=0;entryY=0.5;entryDx=0;entryDy=0;startArrow=ERmandOne;startFill=0;endArrow=ERzeroToMany;endFill=0;" parent="1" source="i4RAoxeFgXgQCkldFnQp-4" target="i4RAoxeFgXgQCkldFnQp-47" edge="1">
          <mxGeometry relative="1" as="geometry" />
        </mxCell>
        <mxCell id="B53bkZV9kgI16YPlFTzY-39" value="contact" style="edgeStyle=orthogonalEdgeStyle;rounded=0;orthogonalLoop=1;jettySize=auto;html=1;exitX=1;exitY=0.5;exitDx=0;exitDy=0;entryX=0;entryY=0.5;entryDx=0;entryDy=0;startArrow=ERmany;startFill=0;endArrow=ERone;endFill=0;" parent="1" source="i4RAoxeFgXgQCkldFnQp-47" target="T7Q6gKHAXMOwdpgTmvkD-21" edge="1">
          <mxGeometry relative="1" as="geometry" />
        </mxCell>
        <mxCell id="B53bkZV9kgI16YPlFTzY-41" value="registers" style="edgeStyle=orthogonalEdgeStyle;rounded=0;orthogonalLoop=1;jettySize=auto;html=1;exitX=1;exitY=0.5;exitDx=0;exitDy=0;startArrow=ERmany;startFill=0;endArrow=ERone;endFill=0;" parent="1" source="T7Q6gKHAXMOwdpgTmvkD-25" target="T7Q6gKHAXMOwdpgTmvkD-37" edge="1">
          <mxGeometry x="-0.0078" relative="1" as="geometry">
            <mxPoint as="offset" />
          </mxGeometry>
        </mxCell>
        <mxCell id="B53bkZV9kgI16YPlFTzY-42" value="deletes" style="edgeStyle=orthogonalEdgeStyle;rounded=0;orthogonalLoop=1;jettySize=auto;html=1;entryX=1.023;entryY=-0.192;entryDx=0;entryDy=0;entryPerimeter=0;startArrow=ERone;startFill=0;endArrow=ERmany;endFill=0;" parent="1" source="T7Q6gKHAXMOwdpgTmvkD-36" target="B53bkZV9kgI16YPlFTzY-8" edge="1">
          <mxGeometry x="0.3309" relative="1" as="geometry">
            <mxPoint as="offset" />
          </mxGeometry>
        </mxCell>
        <mxCell id="B53bkZV9kgI16YPlFTzY-43" style="edgeStyle=orthogonalEdgeStyle;rounded=0;orthogonalLoop=1;jettySize=auto;html=1;exitX=1;exitY=0.5;exitDx=0;exitDy=0;entryX=0;entryY=0.5;entryDx=0;entryDy=0;startArrow=ERone;startFill=0;endArrow=ERone;endFill=0;" parent="1" source="i4RAoxeFgXgQCkldFnQp-61" target="B53bkZV9kgI16YPlFTzY-4" edge="1">
          <mxGeometry relative="1" as="geometry" />
        </mxCell>
        <mxCell id="B53bkZV9kgI16YPlFTzY-44" value="contact" style="edgeStyle=orthogonalEdgeStyle;rounded=0;orthogonalLoop=1;jettySize=auto;html=1;exitX=1;exitY=0.5;exitDx=0;exitDy=0;startArrow=ERmany;startFill=0;endArrow=ERone;endFill=0;" parent="1" source="i4RAoxeFgXgQCkldFnQp-60" target="T7Q6gKHAXMOwdpgTmvkD-25" edge="1">
          <mxGeometry x="0.4417" y="-3" relative="1" as="geometry">
            <mxPoint x="1080" y="702" as="targetPoint" />
            <Array as="points">
              <mxPoint x="830" y="929" />
              <mxPoint x="830" y="700" />
            </Array>
            <mxPoint as="offset" />
          </mxGeometry>
        </mxCell>
        <mxCell id="B53bkZV9kgI16YPlFTzY-45" value="uploads" style="edgeStyle=orthogonalEdgeStyle;rounded=0;orthogonalLoop=1;jettySize=auto;html=1;entryX=0;entryY=0.5;entryDx=0;entryDy=0;startArrow=ERmany;startFill=0;endArrow=ERone;endFill=0;" parent="1" source="B53bkZV9kgI16YPlFTzY-2" target="T7Q6gKHAXMOwdpgTmvkD-27" edge="1">
          <mxGeometry x="-0.0011" relative="1" as="geometry">
            <mxPoint as="offset" />
          </mxGeometry>
        </mxCell>
        <mxCell id="B53bkZV9kgI16YPlFTzY-46" value="transports" style="edgeStyle=orthogonalEdgeStyle;rounded=0;orthogonalLoop=1;jettySize=auto;html=1;exitX=1;exitY=0.5;exitDx=0;exitDy=0;entryX=0.5;entryY=0;entryDx=0;entryDy=0;startArrow=ERzeroToMany;startFill=0;endArrow=ERone;endFill=0;" parent="1" source="T7Q6gKHAXMOwdpgTmvkD-51" target="T7Q6gKHAXMOwdpgTmvkD-20" edge="1">
          <mxGeometry relative="1" as="geometry" />
        </mxCell>
        <mxCell id="B53bkZV9kgI16YPlFTzY-48" value="orders" style="edgeStyle=orthogonalEdgeStyle;rounded=0;orthogonalLoop=1;jettySize=auto;html=1;exitX=1;exitY=0.5;exitDx=0;exitDy=0;entryX=0;entryY=0.5;entryDx=0;entryDy=0;startArrow=ERone;startFill=0;endArrow=ERzeroToMany;endFill=0;" parent="1" source="B53bkZV9kgI16YPlFTzY-27" target="T7Q6gKHAXMOwdpgTmvkD-51" edge="1">
          <mxGeometry relative="1" as="geometry" />
        </mxCell>
      </root>
    </mxGraphModel>
  </diagram>
</mxfile>
